<svg xmlns="http://www.w3.org/2000/svg" id="lt5-grid-bagels-figure" width="390" height="390" viewBox="0 0 390 390">
  <defs>
    <clipPath id="lt5-grid-bagels-__clipPath-0">
      <rect x="40.0" y="10.0" width="340.0" height="340.0"/>
    </clipPath>
    <clipPath id="lt5-grid-bagels-__clipPath-1">
      <rect x="40.0" y="10.0" width="340.0" height="340.0"/>
    </clipPath>
  </defs>
  <g id="lt5-grid-bagels-grid" stroke="lightgray" stroke-width="1">
    <line x1="40.0" y1="350.0" x2="40.0" y2="10.0"/>
    <line x1="61.2" y1="350.0" x2="61.2" y2="10.0"/>
    <line x1="82.5" y1="350.0" x2="82.5" y2="10.0"/>
    <line x1="103.8" y1="350.0" x2="103.8" y2="10.0"/>
    <line x1="125.0" y1="350.0" x2="125.0" y2="10.0"/>
    <line x1="146.2" y1="350.0" x2="146.2" y2="10.0"/>
    <line x1="167.5" y1="350.0" x2="167.5" y2="10.0"/>
    <line x1="188.8" y1="350.0" x2="188.8" y2="10.0"/>
    <line x1="210.0" y1="350.0" x2="210.0" y2="10.0"/>
    <line x1="231.2" y1="350.0" x2="231.2" y2="10.0"/>
    <line x1="252.5" y1="350.0" x2="252.5" y2="10.0"/>
    <line x1="273.8" y1="350.0" x2="273.8" y2="10.0"/>
    <line x1="295.0" y1="350.0" x2="295.0" y2="10.0"/>
    <line x1="316.2" y1="350.0" x2="316.2" y2="10.0"/>
    <line x1="337.5" y1="350.0" x2="337.5" y2="10.0"/>
    <line x1="358.8" y1="350.0" x2="358.8" y2="10.0"/>
    <line x1="380.0" y1="350.0" x2="380.0" y2="10.0"/>
    <line x1="40.0" y1="350.0" x2="380.0" y2="350.0"/>
    <line x1="40.0" y1="328.8" x2="380.0" y2="328.8"/>
    <line x1="40.0" y1="307.5" x2="380.0" y2="307.5"/>
    <line x1="40.0" y1="286.2" x2="380.0" y2="286.2"/>
    <line x1="40.0" y1="265.0" x2="380.0" y2="265.0"/>
    <line x1="40.0" y1="243.8" x2="380.0" y2="243.8"/>
    <line x1="40.0" y1="222.5" x2="380.0" y2="222.5"/>
    <line x1="40.0" y1="201.2" x2="380.0" y2="201.2"/>
    <line x1="40.0" y1="180.0" x2="380.0" y2="180.0"/>
    <line x1="40.0" y1="158.8" x2="380.0" y2="158.8"/>
    <line x1="40.0" y1="137.5" x2="380.0" y2="137.5"/>
    <line x1="40.0" y1="116.2" x2="380.0" y2="116.2"/>
    <line x1="40.0" y1="95.0" x2="380.0" y2="95.0"/>
    <line x1="40.0" y1="73.8" x2="380.0" y2="73.8"/>
    <line x1="40.0" y1="52.5" x2="380.0" y2="52.5"/>
    <line x1="40.0" y1="31.2" x2="380.0" y2="31.2"/>
    <line x1="40.0" y1="10.0" x2="380.0" y2="10.0"/>
  </g>
  <g id="lt5-grid-bagels-axes" stroke="black" stroke-width="2">
    <line id="lt5-grid-bagels-__line-34" x1="40.0" y1="350.0" x2="380.0" y2="350.0" stroke="black" stroke-width="2"/>
    <line id="lt5-grid-bagels-__line-35" x1="40.0" y1="350.0" x2="40.0" y2="10.0" stroke="black" stroke-width="2"/>
  </g>
</svg>
