<svg xmlns="http://www.w3.org/2000/svg" id="pattern-3-doubling-row-figure" width="510" height="110" viewBox="0 0 510 110">
  <defs>
    <clipPath id="pattern-3-doubling-row-__clipPath-0">
      <rect x="5.0" y="5.0" width="500.0" height="100.0"/>
    </clipPath>
    <clipPath id="pattern-3-doubling-row-__clipPath-1">
      <rect x="5.0" y="5.0" width="500.0" height="100.0"/>
    </clipPath>
  </defs>
  <path id="pattern-3-doubling-row-__path-0" d="M 43.5 62.1 L 78.1 62.1 L 78.1 36.4 L 43.5 36.4 Z" stroke="black" stroke-width="2" fill="plum"/>
  <path id="pattern-3-doubling-row-__path-1" d="M 158.8 62.1 L 193.5 62.1 L 193.5 36.4 L 158.8 36.4 Z" stroke="black" stroke-width="2" fill="plum"/>
  <path id="pattern-3-doubling-row-__path-2" d="M 197.3 62.1 L 231.9 62.1 L 231.9 36.4 L 197.3 36.4 Z" stroke="black" stroke-width="2" fill="plum"/>
  <path id="pattern-3-doubling-row-__path-3" d="M 312.7 62.1 L 347.3 62.1 L 347.3 36.4 L 312.7 36.4 Z" stroke="black" stroke-width="2" fill="plum"/>
  <path id="pattern-3-doubling-row-__path-4" d="M 351.2 62.1 L 385.8 62.1 L 385.8 36.4 L 351.2 36.4 Z" stroke="black" stroke-width="2" fill="plum"/>
  <path id="pattern-3-doubling-row-__path-5" d="M 389.6 62.1 L 424.2 62.1 L 424.2 36.4 L 389.6 36.4 Z" stroke="black" stroke-width="2" fill="plum"/>
  <path id="pattern-3-doubling-row-__path-6" d="M 428.1 62.1 L 462.7 62.1 L 462.7 36.4 L 428.1 36.4 Z" stroke="black" stroke-width="2" fill="plum"/>
  <g id="pattern-3-doubling-row-__label-0" transform="translate(62.7,80.4) translate(-23.8,-0.0)">
    <g id="pattern-3-doubling-row-__g-0">
      <text font-family="sans-serif" font-size="14" x="0.0" y="10.4">Case 1</text>
    </g>
  </g>
  <g id="pattern-3-doubling-row-__label-1" transform="translate(197.3,80.4) translate(-23.8,-0.0)">
    <g id="pattern-3-doubling-row-__g-1">
      <text font-family="sans-serif" font-size="14" x="0.0" y="10.4">Case 2</text>
    </g>
  </g>
  <g id="pattern-3-doubling-row-__label-2" transform="translate(389.6,80.4) translate(-23.8,-0.0)">
    <g id="pattern-3-doubling-row-__g-2">
      <text font-family="sans-serif" font-size="14" x="0.0" y="10.4">Case 3</text>
    </g>
  </g>
</svg>
